<svg id="Layer_1" data-name="Layer 1" xmlns="http://www.w3.org/2000/svg" viewBox="0 0 1000 1000"><defs><style>.cls-1{fill:#6c9a4c;}.cls-2{fill:#fff;}</style></defs><rect class="cls-1" width="1000" height="1000" rx="88.65"/><path class="cls-2" d="M246.07,713.22q-44.73,0-83-14.42T99.84,653.49q-25-30.88-30.89-79.14h96.5q4.71,18.24,17.36,29.42T213.71,620a146,146,0,0,0,38.83,5,126,126,0,0,0,28.25-3.23q14.11-3.24,23.53-11.48t9.42-23q0-11.17-5.3-17.95t-15-11.18a141,141,0,0,0-23.83-7.94q-8.83-2.34-18.25-4.12T233.12,542q-8.82-2.34-17.65-5.29-26.47-6.48-50.6-15a165.1,165.1,0,0,1-42.67-22.06,93.51,93.51,0,0,1-29.12-35.31q-10.59-21.76-10.6-54.14,0-31.17,10.89-53.25A98.15,98.15,0,0,1,122.79,321a143.36,143.36,0,0,1,40.6-21.19,239.85,239.85,0,0,1,44.14-10.29,311,311,0,0,1,40.89-2.95q41.78,0,74.44,15.3a129.74,129.74,0,0,1,53,45q20.3,29.71,24.42,73.26H307.85q-2.36-15.3-12.06-25.31t-24.71-15.29q-15-5.31-34.43-5.3A121.77,121.77,0,0,0,214,376.34a68.94,68.94,0,0,0-18.83,6.18,37.06,37.06,0,0,0-12.95,10.88q-5,6.78-5,16.77a25,25,0,0,0,7.06,17.95q7.07,7.36,20.3,12.65a308,308,0,0,0,32.66,10.59,187.82,187.82,0,0,0,27.95,7.36,253.33,253.33,0,0,1,27.95,6.77,369.21,369.21,0,0,1,45.61,13.82,147,147,0,0,1,36.77,20q15.9,12.07,25,31.78t9.12,49.72q0,36.49-13.53,61.49a114.41,114.41,0,0,1-37.07,40.9,161.26,161.26,0,0,1-52.67,22.95A255.48,255.48,0,0,1,246.07,713.22Z" transform="translate(0 0)"/><path class="cls-2" d="M452,708.51V291.9H646.78a218,218,0,0,1,50.9,5.59q23.25,5.6,40.6,18.24t27.37,33.54q10,20.89,10,52.67a99.11,99.11,0,0,1-11.18,45.89,79.52,79.52,0,0,1-31.78,33.54,93.77,93.77,0,0,1,44.43,34.72q16.77,24.13,16.77,63,0,36.5-13.83,61.2a111.49,111.49,0,0,1-37.66,40Q718.58,695.58,686.8,702a338.42,338.42,0,0,1-67.67,6.47Zm95.33-250.67h75.91a95.76,95.76,0,0,0,25-2.95,48.91,48.91,0,0,0,18-8.53,38.31,38.31,0,0,0,10.89-13.53,42.45,42.45,0,0,0,3.82-18.54q0-14.12-6.76-21.48t-18.83-10a131.76,131.76,0,0,0-28-2.65h-80Zm0,163h85.91A124.8,124.8,0,0,0,660,618.18a70.22,70.22,0,0,0,20.6-7.65A33,33,0,0,0,693.56,597,42.16,42.16,0,0,0,698,577.29q0-11.76-3.83-19.42a32.36,32.36,0,0,0-11.47-12.65,50.86,50.86,0,0,0-18.24-7.06,127.51,127.51,0,0,0-24.13-2.06h-93Z" transform="translate(0 0)"/><path class="cls-2" d="M875.09,717.34q-22.37,0-38.84-14.13T819.78,662q0-27.64,16.77-42.95a56.23,56.23,0,0,1,39.13-15.3,54.77,54.77,0,0,1,38.54,15q16.18,15,16.18,42.66t-16.18,41.78Q898,717.34,875.09,717.34Z" transform="translate(0 0)"/></svg>